<svg id="Camada_1" data-name="Camada 1" xmlns="http://www.w3.org/2000/svg" viewBox="0 0 179.81 143.35"><defs><style>.cls-1{fill:#f1f0ea;}</style></defs><path class="cls-1" d="M89.91,143.35q-22.3,0-44.59,0c-7,0-9.83-3.22-9-10A38.7,38.7,0,0,1,74.86,98.71q15.17-.17,30.35,0c20.53.24,37.84,16.38,38.54,35.82.21,5.81-2.63,8.8-8.51,8.81Q112.57,143.39,89.91,143.35Zm44.6-9c.14-11-8.28-21.69-20.06-25.22a37.05,37.05,0,0,0-10.65-1.61c-11.59,0-23.27-.39-34.75.87-13.23,1.45-23.27,13.14-23.92,26Z"/><path class="cls-1" d="M61.17,61C61.09,44.47,73.5,31.54,89.53,31.4a29.06,29.06,0,0,1,.81,58.11C73.79,89.65,61.26,77.37,61.17,61Zm49.11-.62A20.19,20.19,0,0,0,89.63,40.17a20.29,20.29,0,1,0,.64,40.57A20.17,20.17,0,0,0,110.28,60.33Z"/><path class="cls-1" d="M58.26,22.24A22,22,0,0,1,36.13,44.65,22.33,22.33,0,1,1,36,0,22,22,0,0,1,58.26,22.24Zm-8.77,0A13.55,13.55,0,0,0,35.88,8.77,13.85,13.85,0,0,0,22.29,22.4,13.85,13.85,0,0,0,36,35.88,13.55,13.55,0,0,0,49.49,22.26Z"/><path class="cls-1" d="M166.29,22.44A22,22,0,0,1,144,44.65,22.33,22.33,0,1,1,144.19,0,22,22,0,0,1,166.29,22.44Zm-8.76,0A13.54,13.54,0,0,0,144.09,8.77a13.85,13.85,0,0,0-13.76,13.45,13.85,13.85,0,0,0,13.55,13.66A13.55,13.55,0,0,0,157.53,22.43Z"/><path class="cls-1" d="M179.81,77.54c.06,5.39-1,7.3-4.07,7.46s-4.55-1.9-4.68-7.35c-.23-9.53-5.8-15-15.25-15.05-4.75,0-9.5-.11-14.24,0a31.19,31.19,0,0,0-7.33,1.06c-2.68.74-4.83.44-5.89-2.24s.18-4.67,2.62-5.81a12.71,12.71,0,0,1,5-1.5c8.47-.12,17.07-.88,25.39.24C173,56,179.68,65.2,179.81,77.54Z"/><path class="cls-1" d="M31.75,53.51c4.72.35,9.56.6,14.38,1.13,1.41.15,3.3.68,4,1.7,1,1.44,1.83,3.84,1.23,5.17s-3.06,2.4-4.68,2.36c-8.55-.19-17.08-1.2-25.61-1.09-6.84.09-11.76,6.35-12.27,14.16-.08,1.24,0,2.49-.06,3.73-.11,2.66-1.55,4.2-4.18,4.3A3.91,3.91,0,0,1,.18,81.24C-1.14,69.08,5,57.08,17.12,54.63,21.83,53.68,26.77,53.85,31.75,53.51Z"/></svg>