<svg id="Camada_1" data-name="Camada 1" xmlns="http://www.w3.org/2000/svg" viewBox="0 0 134.05 107.21"><defs><style>.cls-1{fill:#f1f0ea;}</style></defs><path class="cls-1" d="M84.75,15.46c-13.8,0-27.59,0-41.38,0-5.76,0-9-4.64-6.79-9.43,1.39-3,4-3.79,7.08-3.79q19.2,0,38.4,0,22.18,0,44.37,0c4.23,0,6.82,1.89,7.47,5.26.88,4.55-2.19,7.92-7.4,7.93C112.59,15.49,98.67,15.46,84.75,15.46Z"/><path class="cls-1" d="M85.06,47c13.79,0,27.58,0,41.38,0,4.38,0,7,2.06,7.51,5.64.59,4.31-2.3,7.48-7.09,7.54-6.33.09-12.67,0-19,0q-31.87,0-63.75,0c-3,0-5.74-.5-7.32-3.4-2.61-4.76.66-9.78,6.52-9.81C57.22,46.94,71.14,47,85.06,47Z"/><path class="cls-1" d="M85,105q-20.7,0-41.38,0c-2.92,0-5.45-.72-6.91-3.46-2.35-4.39.42-9.31,5.51-9.73,2.22-.18,4.47,0,6.71,0,25.6,0,51.2-.08,76.79.13a10.48,10.48,0,0,1,7,3c1.16,1.3,1.28,4.9.27,6.42a8.9,8.9,0,0,1-6.26,3.51c-11.8.34-23.61.16-35.41.17Z"/><path class="cls-1" d="M17.63,9a8.4,8.4,0,0,1-9,8.7A8.63,8.63,0,0,1,0,8.89,8.66,8.66,0,0,1,8.93,0C14.12,0,17.68,3.71,17.63,9Z"/><path class="cls-1" d="M17.63,53.5c0,5.27-3.55,9-8.74,9a8.85,8.85,0,0,1-.22-17.69A8.4,8.4,0,0,1,17.63,53.5Z"/><path class="cls-1" d="M17.63,98.61a8.43,8.43,0,0,1-9.1,8.6A8.85,8.85,0,0,1,9,89.51C14.21,89.58,17.72,93.3,17.63,98.61Z"/></svg>