<?xml version="1.0" encoding="utf-8"?>
<!-- Generator: Adobe Illustrator 25.0.0, SVG Export Plug-In . SVG Version: 6.00 Build 0)  -->
<svg version="1.1" id="Camada_1" xmlns="http://www.w3.org/2000/svg" xmlns:xlink="http://www.w3.org/1999/xlink" x="0px" y="0px"
	 viewBox="0 0 179.34 143.18" style="enable-background:new 0 0 179.34 143.18;" xml:space="preserve">
<style type="text/css">
	.st0{fill:#F0F0F0;}
</style>
<g>
	<path class="st0" d="M73.88,97.07c-8.92,3.01-16.88,5.7-24.84,8.38c-3.29,1.11-6.57,2.24-9.87,3.32c-4.52,1.48-5.93,0.83-7.83-3.52
		c-0.54-1.24-1.1-2.47-1.83-4.12c-5.63,2.27-11.1,4.48-16.56,6.69c-4.35,1.76-5.98,1.11-7.82-3.24c-1.55-3.66-3.04-7.35-4.48-11.05
		c-1.39-3.58-0.6-5.57,2.99-7.11c5.46-2.34,10.99-4.55,16.85-6.96c-0.54-1.45-1.02-2.8-1.56-4.13c-1.88-4.57-1.36-6.11,3.08-8.3
		c13.92-6.87,27.86-13.7,41.8-20.53c13.16-6.45,26.32-12.89,39.49-19.32c0.87-0.43,1.78-0.76,2.98-1.27
		c7.22,17.49,14.37,34.79,21.69,52.51c-5.22,1.79-10.06,3.59-14.99,5.08c-2.58,0.78-3.93,2.01-4.14,4.85
		c-0.14,1.91-0.71,4.1-1.85,5.57c-2.08,2.66-1.75,4.98-0.67,7.88c3.73,10.01,7.24,20.11,10.77,30.2c0.56,1.62,1.15,3.38,1.04,5.04
		c-0.19,3.18-2.2,5.25-5.27,6c-3.06,0.74-6.45-1.41-7.76-5.05c-3.03-8.42-5.87-16.9-8.8-25.36c-0.89-2.57-1.8-5.12-2.71-7.72
		c-2.79,0-5.38,0-8.47,0c-0.97,2.63-2.05,5.5-3.07,8.38c-2.81,7.97-5.58,15.95-8.41,23.91c-1.62,4.56-4.98,6.78-8.27,5.57
		c-4.23-1.55-5.85-5.3-4.17-10.04c3.56-10.07,7.22-20.12,10.83-30.18C72.55,101.06,73.04,99.55,73.88,97.07z M96.01,84.99
		c0.09-3.84-2.85-6.9-6.69-6.96c-3.99-0.07-6.86,2.72-6.86,6.68c0,3.84,2.99,6.82,6.87,6.84C93.04,91.57,95.93,88.73,96.01,84.99z"
		/>
	<path class="st0" d="M179.34,62.8c-1.17,1.18-2.31,3.18-4,3.9c-10.49,4.49-21.11,8.68-31.67,13.02c-3.7,1.52-5.27-0.64-6.47-3.53
		c-5.92-14.23-11.84-28.46-17.75-42.69c-1.72-4.13-3.47-8.25-5.16-12.39c-1.64-4.04-0.86-6.04,3.07-7.7
		c10.06-4.25,20.13-8.47,30.21-12.66c3.72-1.55,5.8-0.78,7.41,3.04c7.85,18.67,15.63,37.38,23.42,56.08
		C178.68,60.54,178.85,61.27,179.34,62.8z"/>
	<path class="st0" d="M96.01,84.99c-0.09,3.75-2.97,6.58-6.68,6.56c-3.88-0.02-6.87-3-6.87-6.84c0-3.96,2.86-6.75,6.86-6.68
		C93.17,78.09,96.1,81.14,96.01,84.99z"/>
</g>
</svg>
