<svg id="Camada_1" data-name="Camada 1" xmlns="http://www.w3.org/2000/svg" viewBox="0 0 343.77 238.09"><defs><style>.cls-1{fill:#363035;}</style></defs><path class="cls-1" d="M171.07,238.09c-78-4.3-134-41.92-169.32-110.57-2.6-5.06-2.2-13.94.52-19.09C38.53,39.71,94.56-.66,173.66,0c77.67.66,132.58,41.05,168,108.7,2.68,5.13,2.84,14,.22,19.09C306.16,197.05,249.56,234.52,171.07,238.09Zm69.79-119.48c0-39.29-30.82-70.25-69.62-69.86a69.72,69.72,0,0,0,1.31,139.44C210.75,187.81,240.82,157.18,240.86,118.61Z"/><path class="cls-1" d="M171.56,161.09c25.1.08,44.12-18.34,44.08-42.68,0-23.75-18.59-42.28-42.59-42.55-25.44-.28-44.27,17.33-44.78,41.87S146.62,161,171.56,161.09Z"/></svg>