<svg id="Camada_1" data-name="Camada 1" xmlns="http://www.w3.org/2000/svg" viewBox="0 0 143.08 143.16"><defs><style>.cls-1{fill:#f1f0ea;}</style></defs><path class="cls-1" d="M143.08,71.6A71.54,71.54,0,1,1,71.82,0,71.49,71.49,0,0,1,143.08,71.6Zm-13.19,0a58.35,58.35,0,1,0-58.31,58.32A58.23,58.23,0,0,0,129.89,71.6Z"/><path class="cls-1" d="M73.6,49.08H69.88c-7.41,0-8,.45-9.84,7.68a6.38,6.38,0,0,1-7.56,5c-3.38-.54-5.55-3.56-5.33-7.39.52-9.17,6.1-16.48,15.14-17.72a91.6,91.6,0,0,1,22.2-.22c8.33.9,13.61,6.31,15.34,14.6S98.7,66.24,91.89,71.26C88.3,73.9,84.28,76,80.62,78.51A7.85,7.85,0,0,0,78,82.13c-1.14,3.23-3.29,5.06-6.61,4.94s-5.45-2-6.18-5.4c-1.33-6.15.05-9.53,5.4-12.82,4.44-2.73,8.83-5.53,13.32-8.18,2.71-1.59,3.93-3.75,3.15-6.82s-3.12-4.44-6-4.7c-2.46-.22-5,0-7.45,0Z"/><path class="cls-1" d="M71.7,94.08a8.86,8.86,0,1,1-9,8.49A8.65,8.65,0,0,1,71.7,94.08Z"/></svg>