<svg id="Camada_1" data-name="Camada 1" xmlns="http://www.w3.org/2000/svg" viewBox="0 0 160.81 143.27"><defs><style>.cls-1{fill:#f1f0ea;}</style></defs><path class="cls-1" d="M17.89,68.74c-2.53,2.08-4.14,3.43-5.77,4.74C8,76.83,4.18,76.87,1.61,73.63s-2-6.95,2-10.34Q35.4,36.41,67.2,9.55c2.66-2.25,5.3-4.52,8-6.76,4.43-3.71,6.66-3.74,11.1,0q20.53,17.36,41,34.77c10.15,8.62,20.35,17.18,30.4,25.91,1.48,1.29,3.18,3.43,3.13,5.12-.07,2.17-1.28,5-3,6.2-1.48,1-4.59.84-6.44,0-2.73-1.25-5-3.55-8.25-6v4.66q0,23,0,45.93c0,14.9-9.05,23.89-24,23.89q-38.66,0-77.3,0c-14.79,0-23.93-9.12-24-24,0-15.18,0-30.36,0-45.54Zm63-53.28a7.42,7.42,0,0,0-1.11.5C64.12,29.27,48.46,42.54,32.92,56a6.63,6.63,0,0,0-1.76,4.51Q31,90.14,31.1,119.82c0,6.92,3.42,10.19,10.42,10.2h78c7.31,0,10.38-3.09,10.39-10.48,0-16.43-.61-32.89.24-49.27.5-9.52-2.33-15.74-9.92-21.57C106.68,38.25,94,26.63,80.87,15.46Z"/></svg>