<svg id="Camada_1" data-name="Camada 1" xmlns="http://www.w3.org/2000/svg" viewBox="0 0 435.94 436.32"><defs><style>.cls-1{fill:#f0f0f0;}</style></defs><path class="cls-1" d="M286.88,316c-81.15,62.11-189.14,44.22-246.81-26.44C-17,219.6-12.72,117.19,50.48,51.89,111.1-10.74,214.7-17.36,283.88,35.76c74.2,57,95.12,168.59,29.43,254.58,3.09,1.66,7.51,2.92,10.38,5.75q50.54,50,100.63,100.48c3.19,3.19,6.52,6.49,8.76,10.34,4.44,7.63,3.69,15.41-2.08,22.14s-13.27,9.25-21.42,5.62a47.4,47.4,0,0,1-13.67-9.75C359.6,388.86,323.49,352.6,286.88,316Zm26.66-133.09c3.24-68.32-45.37-136.17-126.73-142.43C108.73,34.43,44.23,94,40.52,170.15c-3.27,67.22,43.84,136.16,126.18,143C244,319.51,310.19,260.69,313.54,182.87Z"/></svg>