<?xml version="1.0" encoding="utf-8"?>
<!-- Generator: Adobe Illustrator 25.0.0, SVG Export Plug-In . SVG Version: 6.00 Build 0)  -->
<svg version="1.1" id="Camada_1" xmlns="http://www.w3.org/2000/svg" xmlns:xlink="http://www.w3.org/1999/xlink" x="0px" y="0px"
	 viewBox="0 0 143.15 143.37" style="enable-background:new 0 0 143.15 143.37;" xml:space="preserve">
<style type="text/css">
	.st0{fill:#F0F0F0;}
</style>
<g>
	<path class="st0" d="M143.15,71.67c0.02,39.51-31.98,71.66-71.36,71.7C32.12,143.42,0.02,111.37,0,71.7
		C-0.02,32.06,32.1-0.04,71.75,0C111.16,0.04,143.13,32.13,143.15,71.67z M13.14,71.7c0.02,32.23,26.22,58.42,58.45,58.42
		c32.23,0,58.44-26.22,58.43-58.43C130,39.44,103.81,13.26,71.57,13.26C39.35,13.26,13.12,39.5,13.14,71.7z"/>
	<path class="st0" d="M65.04,65.06c0-6.13-0.05-11.95,0.02-17.76c0.03-2.79,0.98-5.5,3.9-6.11c2.08-0.44,4.98-0.35,6.48,0.82
		c1.55,1.2,2.44,3.97,2.57,6.13c0.35,5.43,0.12,10.91,0.12,16.93c6.02,0,11.69-0.02,17.35,0.01c3.45,0.02,6.08,1.34,7.01,4.9
		c1.19,4.57-1.8,8.23-6.89,8.32c-5.59,0.1-11.18,0.02-17.46,0.02c0,3.39,0.01,6.56,0,9.73c-0.01,2.86,0.1,5.74-0.1,8.59
		c-0.27,3.85-2.98,6.37-6.49,6.35c-3.52-0.02-6.24-2.53-6.43-6.41c-0.22-4.47-0.09-8.96-0.11-13.44c-0.01-1.46,0-2.93,0-4.81
		c-6.14,0-11.83,0.08-17.52-0.02c-5.07-0.1-8.05-3.82-6.8-8.39c0.97-3.56,3.62-4.83,7.06-4.84C53.33,65.05,58.91,65.06,65.04,65.06z
		"/>
</g>
</svg>
